<svg width="24" height="24" viewBox="0 0 24 24" fill="none" xmlns="http://www.w3.org/2000/svg">
<path d="M13.0271 2.00195C14.1525 2.00381 14.7228 2.00976 15.2156 2.02443L15.4097 2.03078C15.6339 2.03875 15.8551 2.04875 16.1218 2.06125C17.1859 2.11041 17.9118 2.27875 18.5493 2.52625C19.2084 2.78041 19.7651 3.12375 20.3209 3.67958C20.8759 4.23541 21.2193 4.79375 21.4743 5.45125C21.7209 6.08791 21.8893 6.81458 21.9393 7.87875C21.9512 8.14541 21.9608 8.36661 21.9687 8.59086L21.975 8.78494C21.9896 9.27769 21.9963 9.84807 21.9984 10.9735L21.9992 11.7192C21.9993 11.8103 21.9993 11.9043 21.9993 12.0013L21.9992 12.2834L21.9986 13.0291C21.9967 14.1545 21.9908 14.7248 21.9761 15.2176L21.9697 15.4117C21.9618 15.6359 21.9518 15.8571 21.9393 16.1238C21.8901 17.1879 21.7209 17.9138 21.4743 18.5513C21.2201 19.2104 20.8759 19.7671 20.3209 20.3229C19.7651 20.8779 19.2059 21.2213 18.5493 21.4763C17.9118 21.7229 17.1859 21.8913 16.1218 21.9413C15.8551 21.9532 15.6339 21.9628 15.4097 21.9707L15.2156 21.977C14.7228 21.9916 14.1525 21.9983 13.0271 22.0004L12.2814 22.0012C12.1903 22.0013 12.0963 22.0013 11.9993 22.0013L11.7172 22.0012L10.9715 22.0006C9.84612 21.9987 9.27574 21.9928 8.78299 21.9781L8.58891 21.9717C8.36466 21.9638 8.14346 21.9538 7.8768 21.9413C6.81263 21.8921 6.08763 21.7229 5.4493 21.4763C4.79096 21.2221 4.23346 20.8779 3.67763 20.3229C3.1218 19.7671 2.7793 19.2079 2.5243 18.5513C2.2768 17.9138 2.1093 17.1879 2.0593 16.1238C2.04742 15.8571 2.03773 15.6359 2.02988 15.4117L2.02359 15.2176C2.00896 14.7248 2.00229 14.1545 2.00013 13.0291L2 10.9735C2.00186 9.84807 2.00781 9.27769 2.02248 8.78494L2.02883 8.59086C2.0368 8.36661 2.0468 8.14541 2.0593 7.87875C2.10846 6.81375 2.2768 6.08875 2.5243 5.45125C2.77846 4.79291 3.1218 4.23541 3.67763 3.67958C4.23346 3.12375 4.7918 2.78125 5.4493 2.52625C6.0868 2.27875 6.8118 2.11125 7.8768 2.06125C8.14346 2.04937 8.36466 2.03968 8.58891 2.03183L8.78299 2.02554C9.27574 2.01091 9.84612 2.00424 10.9715 2.00208L13.0271 2.00195ZM11.9993 7.00125C9.2364 7.00125 6.9993 9.24078 6.9993 12.0013C6.9993 14.7642 9.23883 17.0013 11.9993 17.0013C14.7622 17.0013 16.9993 14.7617 16.9993 12.0013C16.9993 9.23835 14.7597 7.00125 11.9993 7.00125ZM11.9993 9.00125C13.6562 9.00125 14.9993 10.3439 14.9993 12.0013C14.9993 13.6582 13.6566 15.0013 11.9993 15.0013C10.3424 15.0013 8.9993 13.6586 8.9993 12.0013C8.9993 10.3444 10.3419 9.00125 11.9993 9.00125ZM17.2493 5.50125C16.56 5.50125 15.9993 6.06115 15.9993 6.7504C15.9993 7.43964 16.5592 8.00041 17.2493 8.00041C17.9385 8.00041 18.4993 7.44051 18.4993 6.7504C18.4993 6.06115 17.9376 5.50038 17.2493 5.50125Z" fill="white" fill-opacity="0.5"/>
</svg>
