<svg width="160" height="90" viewBox="0 0 160 90" fill="none" xmlns="http://www.w3.org/2000/svg">
<g clip-path="url(#clip0_2655_35)">
<path d="M74.2812 22.4551H93.7167V26.6446H79.983V29.3715H93.3946V33.586H79.983V36.6102H93.9646V40.899H74.2812V22.4551Z" fill="white"/>
<path d="M57.4056 40.899V26.8182H49.4727V22.4551H71.1889V26.8182H63.2314V40.899H57.4056Z" fill="white"/>
<path d="M41.6315 33.3628L38.0617 26.4463L34.6408 33.3628H41.6315ZM45.4988 40.899L43.7635 37.5277H32.5832L30.9223 40.899H25.0469L34.368 22.4551H41.8547L51.7213 40.899H45.4988Z" fill="white"/>
<path d="M0.0078125 40.899V22.4551H12.2294C22.914 22.4551 25.2443 27.0414 25.2443 31.1812V31.9248C25.2443 35.8913 23.038 40.899 12.2542 40.899H0.0078125ZM5.78394 26.8182V36.4617H11.7832C18.3278 36.4617 19.1955 33.586 19.1955 31.7019V31.5532C19.1955 29.6691 18.427 26.8182 11.7832 26.8182H5.78394Z" fill="white"/>
<path d="M143.227 40.7432L143.254 40.4712C143.563 40.3625 143.808 40.1452 143.99 39.8185C144.172 39.4922 144.318 38.9749 144.427 38.2672L146.594 24.9294C146.649 24.5664 146.676 24.2398 146.677 23.9493C146.677 23.3322 146.478 22.9418 146.079 22.7779L146.107 22.5057L151.742 22.5123L151.714 22.7846C151.388 22.9112 151.133 23.1378 150.951 23.4643C150.788 23.7727 150.642 24.2807 150.514 24.9884L149.554 30.8953L153.856 30.9003L154.843 24.939C154.898 24.5761 154.926 24.2585 154.926 23.9862C154.927 23.3328 154.718 22.9333 154.301 22.7876L154.329 22.5153L159.991 22.522L159.964 22.7942C159.637 22.9027 159.383 23.1202 159.201 23.4467C159.019 23.7732 158.873 24.2903 158.763 24.998L156.624 38.3088C156.551 38.6717 156.514 38.9983 156.514 39.2887C156.513 39.9057 156.722 40.3054 157.139 40.4872L157.111 40.7595L151.449 40.7531L151.503 40.4809C151.812 40.3723 152.048 40.1548 152.212 39.8281C152.394 39.4836 152.54 38.9664 152.649 38.2768L153.746 31.5264L149.472 31.5213L148.375 38.299C148.32 38.6802 148.292 38.9978 148.292 39.2519C148.291 39.9233 148.491 40.3321 148.89 40.4776L148.889 40.7499L143.227 40.7432Z" fill="white"/>
<path d="M132.091 40.7309L132.146 40.4587C132.418 40.3683 132.645 40.2414 132.827 40.0782C133.009 39.8969 133.154 39.6521 133.263 39.3436C133.391 39.0354 133.5 38.609 133.591 38.0645L136.032 23.039L135.814 23.0659C134.889 23.1556 134.062 23.6447 133.335 24.5332C132.608 25.4217 131.98 26.6914 131.452 28.3424L131.18 28.3422L132.412 22.4902L143.792 22.5035L143.077 28.356L142.805 28.3558C142.716 27.1578 142.571 26.1866 142.373 25.4422C142.174 24.6978 141.893 24.1348 141.531 23.7532C141.186 23.3717 140.724 23.1443 140.143 23.071L139.953 23.0436L137.539 38.0419C137.503 38.2051 137.475 38.3776 137.457 38.5592C137.438 38.7405 137.429 38.9039 137.429 39.049C137.429 39.4484 137.501 39.7572 137.646 39.975C137.791 40.1747 138.017 40.3384 138.326 40.4659L138.271 40.7381L132.091 40.7309Z" fill="white"/>
<path d="M121.305 40.718L121.332 40.4457C121.641 40.3372 121.886 40.1199 122.068 39.7933C122.25 39.4669 122.396 38.9496 122.506 38.242L124.672 24.9041C124.69 24.7589 124.709 24.5956 124.727 24.4141C124.745 24.2326 124.755 24.0693 124.755 23.9241C124.756 23.307 124.556 22.9165 124.157 22.7527L124.185 22.4805L129.82 22.4871L129.793 22.7593C129.466 22.8859 129.212 23.1125 129.03 23.439C128.866 23.7474 128.72 24.2554 128.592 24.9631L126.453 38.2737C126.398 38.655 126.371 38.9726 126.37 39.2267C126.37 39.8981 126.569 40.3068 126.968 40.4524L126.968 40.7246L121.305 40.718Z" fill="white"/>
<path d="M105.862 40.8894L104.275 24.7975C104.167 23.7084 103.85 23.0183 103.324 22.7273L103.352 22.4551L109.314 22.462L109.286 22.7342C108.996 22.8428 108.778 23.0422 108.632 23.3324C108.487 23.6045 108.414 23.9765 108.413 24.4484C108.413 24.8477 108.439 25.3832 108.493 26.0548L109.002 33.27L112.06 26.059L111.952 24.9426C111.898 24.4344 111.835 24.035 111.763 23.7445C111.709 23.454 111.636 23.2361 111.546 23.0908C111.455 22.9455 111.337 22.8274 111.192 22.7365L111.22 22.4643L116.991 22.471L116.964 22.7432C116.565 22.8698 116.292 23.0964 116.147 23.4229C116.019 23.7313 115.955 24.1668 115.954 24.7295C115.954 24.8929 115.954 25.0925 115.954 25.3285C115.953 25.5463 115.962 25.7913 115.98 26.0636L116.434 33.2516L118.81 27.2104C119.338 25.8678 119.602 24.8608 119.603 24.1893C119.603 23.8263 119.531 23.5358 119.386 23.3178C119.241 23.0817 119.006 22.8908 118.679 22.7452L118.707 22.473L122.682 22.4777L122.654 22.7499C122.273 22.9854 121.937 23.2663 121.646 23.5927C121.373 23.9191 121.091 24.3544 120.8 24.8985C120.509 25.4427 120.172 26.1683 119.79 27.0753L113.975 40.899L113.458 40.8985L112.221 27.6928L106.379 40.8902L105.862 40.8894Z" fill="white"/>
<path d="M145.088 72.8128L137.523 46.9023H144.975L148.926 63.6679L152.878 46.9023H159.991L152.596 72.9821V88.9009H145.088V72.8128Z" fill="white"/>
<path d="M125.502 65.4179C126.8 69.4822 127.478 71.8532 128.099 74.2804C127.929 71.8532 127.816 69.4822 127.816 63.16V46.9023H134.308V88.9009H127.816L121.042 69.0871C119.631 65.0792 118.841 62.3132 118.333 60.055C118.559 62.3697 118.728 65.4179 118.728 71.3452V88.9009H112.18V46.9023H119.518L125.502 65.4179Z" fill="white"/>
<path d="M106.524 88.9009H99.0156V46.9023H106.524V88.9009Z" fill="white"/>
<path d="M80.5258 53.5635H73.6953V46.9023H94.8076V53.5635H88.0337V88.9009H80.5258V53.5635Z" fill="white"/>
<path d="M59.1279 89.3529C52.5233 89.3529 49.0234 86.3047 49.0234 80.8856V73.7728H56.3621V79.5306C56.3621 81.8452 57.5476 82.9742 59.7489 82.9742C61.9505 82.9742 63.0795 81.6194 63.0795 78.9098V78.4581C63.0795 75.6921 62.1764 74.2807 59.9182 72.2487L54.4426 67.3375C51.1123 64.3456 49.3058 61.5798 49.3058 56.9507V55.7652C49.3058 49.3865 52.8057 46.451 59.5231 46.451H60.7085C66.8617 46.451 70.4179 49.1044 70.4179 54.58V60.1119H63.1925V56.0476C63.1925 53.5073 62.1764 52.4912 60.1441 52.4912C57.9427 52.4912 56.9266 53.4508 56.9266 55.8783V56.2734C56.9266 58.7571 57.7731 59.9426 60.0313 62.0312L65.4504 66.9989C69.1761 70.4422 70.8695 72.926 70.8695 77.9502V79.1357C70.8695 84.8369 67.8213 89.3529 60.3699 89.3529H59.1279Z" fill="white"/>
<path d="M45.4124 46.9023V53.4504H34.2918V63.8373H43.5494V70.5549H34.2918V82.1835H45.751V88.9009H26.9531V46.9023H45.4124Z" fill="white"/>
<path d="M0.0078125 46.9023H11.8622C18.6362 46.9023 21.3458 49.6119 21.3458 56.5551V79.0222C21.3458 85.7961 18.6362 88.9009 11.8622 88.9009H0.0078125V46.9023ZM7.51564 82.5221H10.1688C12.8783 82.5221 13.7816 81.0545 13.7816 78.1191V57.2892C13.7816 54.1845 12.9348 52.8859 10.2817 52.8859H7.51564V82.5221Z" fill="white"/>
<path d="M0.924 11V0.569999H5.334C6.05267 0.569999 6.66867 0.691333 7.182 0.933999C7.69533 1.17667 8.08733 1.52667 8.358 1.984C8.62867 2.432 8.764 2.978 8.764 3.622C8.764 4.07933 8.638 4.518 8.386 4.938C8.134 5.34867 7.71867 5.694 7.14 5.974V4.91C7.69067 5.12467 8.11533 5.38133 8.414 5.68C8.71267 5.97867 8.918 6.30533 9.03 6.66C9.142 7.00533 9.198 7.36933 9.198 7.752C9.198 8.77867 8.85733 9.57667 8.176 10.146C7.49467 10.7153 6.54733 11 5.334 11H0.924ZM3.094 9.11H5.586C6.02467 9.11 6.37467 8.984 6.636 8.732C6.89733 8.48 7.028 8.15333 7.028 7.752C7.028 7.34133 6.89733 7.01 6.636 6.758C6.37467 6.506 6.02467 6.38 5.586 6.38H3.094V9.11ZM3.094 4.49H5.488C5.824 4.49 6.09 4.39667 6.286 4.21C6.49133 4.014 6.594 3.75733 6.594 3.44C6.594 3.12267 6.49133 2.87067 6.286 2.684C6.09 2.488 5.824 2.39 5.488 2.39H3.094V4.49ZM19.55 11V0.569999H21.72V5.078H25.78V0.569999H27.95V11H25.78V6.968H21.72V11H19.55ZM42.9079 11.168C42.0866 11.168 41.3539 10.9953 40.7099 10.65C40.0659 10.3047 39.5573 9.83333 39.1839 9.236C38.8199 8.62933 38.6379 7.94333 38.6379 7.178V0.569999H40.8079V7.038C40.8079 7.44867 40.8966 7.822 41.0739 8.158C41.2606 8.48467 41.5126 8.74133 41.8299 8.928C42.1473 9.11467 42.5066 9.208 42.9079 9.208C43.3186 9.208 43.6779 9.11467 43.9859 8.928C44.3033 8.74133 44.5506 8.48467 44.7279 8.158C44.9146 7.822 45.0079 7.44867 45.0079 7.038V0.569999H47.1779V7.178C47.1779 7.94333 46.9913 8.62933 46.6179 9.236C46.2539 9.83333 45.7499 10.3047 45.1059 10.65C44.4619 10.9953 43.7293 11.168 42.9079 11.168ZM57.8548 11V0.569999H61.8588C62.5774 0.569999 63.2121 0.695999 63.7628 0.947999C64.3228 1.2 64.7614 1.57333 65.0788 2.068C65.3961 2.56267 65.5548 3.174 65.5548 3.902C65.5548 4.61133 65.3914 5.21333 65.0648 5.708C64.7474 6.20267 64.3088 6.58067 63.7488 6.842C63.1981 7.094 62.5681 7.22 61.8588 7.22H60.0248V11H57.8548ZM60.0248 5.33H61.8728C62.1808 5.33 62.4468 5.26933 62.6708 5.148C62.8948 5.02667 63.0674 4.85867 63.1888 4.644C63.3194 4.42933 63.3848 4.182 63.3848 3.902C63.3848 3.61267 63.3194 3.36067 63.1888 3.146C63.0674 2.93133 62.8948 2.76333 62.6708 2.642C62.4468 2.52067 62.1808 2.46 61.8728 2.46H60.0248V5.33ZM75.9066 11V0.569999H82.9206V2.46H78.0766V4.826H82.6406V6.716H78.0766V9.11H82.9206V11H75.9066ZM93.1107 11V0.569999H94.7767L100.377 7.948L99.4807 8.158V0.569999H101.651V11H99.9707L94.4687 3.566L95.2807 3.356V11H93.1107ZM112.461 11V0.569999H115.863C116.993 0.569999 117.973 0.793999 118.803 1.242C119.634 1.69 120.278 2.306 120.735 3.09C121.193 3.874 121.421 4.77 121.421 5.778C121.421 6.786 121.193 7.68667 120.735 8.48C120.278 9.264 119.634 9.88 118.803 10.328C117.973 10.776 116.993 11 115.863 11H112.461ZM114.631 9.11H115.919C116.601 9.11 117.189 8.97467 117.683 8.704C118.178 8.424 118.561 8.03667 118.831 7.542C119.111 7.038 119.251 6.45 119.251 5.778C119.251 5.09667 119.111 4.50867 118.831 4.014C118.561 3.51933 118.178 3.13667 117.683 2.866C117.189 2.59533 116.601 2.46 115.919 2.46H114.631V9.11ZM131.771 11V0.569999H135.761C136.48 0.569999 137.114 0.695999 137.665 0.947999C138.225 1.2 138.664 1.57333 138.981 2.068C139.298 2.56267 139.457 3.174 139.457 3.902C139.457 4.61133 139.294 5.218 138.967 5.722C138.64 6.21667 138.202 6.59 137.651 6.842L140.031 11H137.595L135.019 6.394L136.419 7.22H133.941V11H131.771ZM133.941 5.33H135.775C136.083 5.33 136.349 5.26933 136.573 5.148C136.797 5.02667 136.97 4.85867 137.091 4.644C137.222 4.42933 137.287 4.182 137.287 3.902C137.287 3.61267 137.222 3.36067 137.091 3.146C136.97 2.93133 136.797 2.76333 136.573 2.642C136.349 2.52067 136.083 2.46 135.775 2.46H133.941V5.33ZM149.299 11L152.827 0.569999H155.711L159.239 11H156.873L156.173 8.872H152.351L151.651 11H149.299ZM152.953 6.982H155.571L153.975 2.054H154.563L152.953 6.982Z" fill="white"/>
</g>
<defs>
<clipPath id="clip0_2655_35">
<rect width="159.982" height="89.59" fill="white" transform="translate(0.0078125)"/>
</clipPath>
</defs>
</svg>
